# xmcd
#
# Track frame offsets:
#	150
#	14770
#	30257
#	42974
#	57295
#	67758
#	82725
#	93632
#	112334
#	124371
#	137507
#	154274
#	168632
#
# Disc length: 2467 seconds
#
# Revision: 1
# Processed by: cddbd v1.5.1PL0 Copyright (c) Steve Scherf et al.
# Submitted via: audiograbber 1.83.01
#
DISCID=ac09a10d
DTITLE=Nancy Hays - Get in line
DYEAR=2004
DGENRE=Country
TTITLE0=Get in line
TTITLE1=Natural thing
TTITLE2=Caribbean two step tango
TTITLE3=If it looks like love
TTITLE4=Put on your dancin' boots
TTITLE5=Crime of the century
TTITLE6=Man what a man
TTITLE7=She'll have to go
TTITLE8=Does Jesus cross your heart
TTITLE9=Spread a little love around
TTITLE10=Always
TTITLE11=Hey good looking
TTITLE12=If I were brave
EXTD=
EXTT0=
EXTT1=
EXTT2=
EXTT3=
EXTT4=
EXTT5=
EXTT6=
EXTT7=
EXTT8=
EXTT9=
EXTT10=
EXTT11=
EXTT12=
PLAYORDER=
